<svg width="36" height="36" viewBox="0 0 36 36" fill="none" xmlns="http://www.w3.org/2000/svg">
<path fill-rule="evenodd" clip-rule="evenodd" d="M11.1335 29.7305C11.7665 29.7305 12.281 30.245 12.281 30.878C12.281 31.511 11.7665 32.024 11.1335 32.024C10.5005 32.024 9.98746 31.511 9.98746 30.878C9.98746 30.245 10.5005 29.7305 11.1335 29.7305Z" stroke="#3E3F49" stroke-width="1.5" stroke-linecap="round" stroke-linejoin="round"/>
<path fill-rule="evenodd" clip-rule="evenodd" d="M28.0121 29.7305C28.6451 29.7305 29.1596 30.245 29.1596 30.878C29.1596 31.511 28.6451 32.024 28.0121 32.024C27.3791 32.024 26.8646 31.511 26.8646 30.878C26.8646 30.245 27.3791 29.7305 28.0121 29.7305Z" stroke="#3E3F49" stroke-width="1.5" stroke-linecap="round" stroke-linejoin="round"/>
<path d="M4.12485 4.875L7.24485 5.415L8.68935 22.6245C8.80635 24.027 9.97785 25.104 11.3848 25.104H27.7528C29.0968 25.104 30.2368 24.117 30.4303 22.785L31.8538 12.948C32.0293 11.7345 31.0888 10.6485 29.8633 10.6485H7.74585" stroke="#3E3F49" stroke-width="1.5" stroke-linecap="round" stroke-linejoin="round"/>
<path d="M21.1881 16.1925H25.3476" stroke="#3E3F49" stroke-width="1.5" stroke-linecap="round" stroke-linejoin="round"/>
</svg>
